<?xml version="1.0" encoding="utf-8" ?><svg xmlns="http://www.w3.org/2000/svg" xmlns:xlink="http://www.w3.org/1999/xlink" width="1024" height="1024" viewBox="0 0 1024 1024"><path fill="#020B33" d="M553.356 470.712C573.036 471.144 581.712 476.08 590.502 493.717C590.427 486.135 590.441 478.553 590.545 470.971C599.257 474.622 609.773 480.188 618.283 484.553C618.686 493.445 618.479 504.073 618.573 513.095L618.983 580.583C611.591 584.957 598.198 592.023 590.433 595.703C590.854 588.114 590.976 579.116 589.936 571.619L587.481 578.052C581.213 591.062 572.059 594.364 558.56 595.675C523.332 598.852 497.144 572.999 494.755 538.517C492.823 510.636 504.602 483.41 532.449 474.008C539.513 471.624 545.986 471.173 553.356 470.712ZM561.26 567.113C580.431 564.697 593.959 547.118 591.384 527.968C588.81 508.817 571.12 495.436 551.991 498.17C533.086 500.871 519.894 518.31 522.439 537.237C524.984 556.164 542.312 569.5 561.26 567.113Z"/><path fill="#020B33" d="M793.125 429.619C800.772 430.168 816.304 429.957 824.01 429.575C829.862 447.126 837.859 467.37 844.444 484.841L887.278 595.255C877.362 595.13 864.77 594.735 854.963 595.436C850.736 585.979 844.519 565.773 841.294 555.412C822.958 554.234 797.057 555.247 777.926 555.19C780.71 546.846 785.741 535.101 789.166 527.03L830.859 526.997C829.109 521.774 827.078 516.34 825.219 511.131C819.719 497.187 812.969 478.172 808.094 463.801C804.298 472.74 800.346 483.745 796.702 492.971L774.814 547.464C768.606 563.132 762.266 579.983 755.564 595.353C747.879 594.696 731.317 595.089 723.471 595.431C732.605 571.381 744.991 545.186 755.007 521.207C767.567 491.139 779.844 459.256 793.125 429.619Z"/><path fill="#020B33" d="M352.85 427.691C360.277 426.435 372.64 428.054 379.887 430.121C396.606 434.888 408.646 443.783 417.1 459.062C408.178 464.386 399.438 468.959 390.179 473.657C383.282 464.398 377.588 459.41 365.663 457.221C359.109 456.079 345.405 456.438 340.335 461.335C318.139 482.774 356.821 493.429 368.606 497.284C374 498.999 379.314 500.954 384.532 503.145C393.359 506.921 403.028 512.586 409.184 520.03C423.719 537.604 421.395 569.693 402.956 583.838C388.397 595.006 370.816 597.423 353.121 595.588C347.942 595.403 340.072 593.488 335.203 591.778C315.343 584.804 305.946 573.287 297.041 555.193C303.832 551.153 318.247 543.852 325.433 540.673C333.582 560.232 346.704 569.103 368.783 566.729C375.247 566.034 382.596 563.934 386.488 558.28C403.197 534.007 355.853 525.561 341.766 519.411C324.008 512.273 307.911 501.821 304.988 481.411C300.211 448.051 322.981 432.037 352.85 427.691Z"/><path fill="#020B33" d="M626.408 473.268C635.347 473.16 644.288 473.135 653.228 473.195C655.719 476.03 662.995 486.227 665.456 489.756C670.319 496.731 679.724 508.648 683.217 515.794C692.623 503.362 705.355 485.039 715.148 473.432C725.423 472.951 740.175 473.491 750.783 473.562C734.608 493.118 719.138 513.249 702.744 532.592C709.495 542.324 721.3 555.652 729.129 565.044C725.563 573.594 720.201 585.986 716.292 594.193L715.816 594.242C711.591 589.36 706.221 581.817 702.264 576.466C695.942 568.036 689.764 559.499 683.733 550.859C672.016 565.509 660.745 579.422 649.47 594.485C637.559 594.47 626.597 594.118 614.58 594.327C619.257 587.285 628.106 577.105 633.778 570.217L664.471 532.91C657.581 524.865 650.8 515.291 644.359 506.839C635.784 495.651 627.127 484.525 618.389 473.464L626.408 473.268Z"/><path fill="#5B6B8D" d="M205.515 472.544C220.002 466.03 235.089 458.66 249.495 452.444C249.478 461.757 248.856 486.118 249.879 494.564C248.67 496.318 246.867 496.61 244.953 497.405C234.624 501.824 224.406 506.498 214.308 511.422C223.176 515.877 240.052 524.378 248.916 527.666C233.066 535.616 216.54 543.235 200.509 550.948C191.049 547.617 174.864 539.387 166.066 534.565L166.04 491.34L199.592 475.175L205.515 472.544Z"/><path fill="#34415A" d="M205.515 472.544C220.002 466.03 235.089 458.66 249.495 452.444C249.478 461.757 248.856 486.118 249.879 494.564C241.207 489.347 227.628 484.293 218.446 479.424C214.235 477.192 209.42 475.466 205.515 472.544Z"/><path fill="#99886A" d="M205.515 472.544C209.42 475.466 214.235 477.192 218.446 479.424C227.628 484.293 241.207 489.347 249.879 494.564C248.67 496.318 246.867 496.61 244.953 497.405C241.76 495.155 235.568 492.406 231.926 490.546C221.301 485.122 210.353 480.341 199.592 475.175L205.515 472.544Z"/><path fill="#34415A" d="M76.8758 453.392C85.2829 456.452 93.0913 460.684 101.198 464.265C120.48 472.781 139.799 483.355 158.927 491.796C158.93 505.658 158.744 520.153 159.144 533.956C157.733 536 156.473 536.163 153.997 537.296C144.309 541.752 134.583 546.126 124.82 550.416C109.007 543.043 92.841 535.195 77.0029 528.107C86.383 523.73 95.6862 519.189 104.908 514.488C106.776 513.5 108.84 512.523 110.746 511.574C99.2523 506.415 87.9492 500.842 76.8589 494.864C76.5246 480.647 76.8761 467.45 76.8758 453.392Z"/><path fill="#34415A" d="M110.746 511.574C117.965 514.923 154.098 533.037 159.144 533.956C157.733 536 156.473 536.163 153.997 537.296C144.309 541.752 134.583 546.126 124.82 550.416C109.007 543.043 92.841 535.195 77.0029 528.107C86.383 523.73 95.6862 519.189 104.908 514.488C106.776 513.5 108.84 512.523 110.746 511.574Z"/><path fill="#99886A" d="M110.746 511.574C117.965 514.923 154.098 533.037 159.144 533.956C157.733 536 156.473 536.163 153.997 537.296C152.469 536.257 138.545 529.916 136.335 528.96C127.718 525.232 113.384 516.782 104.908 514.488C106.776 513.5 108.84 512.523 110.746 511.574Z"/><path fill="#020B33" d="M890.423 429.593C898.383 430.222 910.63 429.835 918.808 429.791C918.502 437.568 918.991 445.533 918.865 453.332C918.098 500.647 919.308 548.123 918.771 595.407C912.181 594.803 896.562 595.057 890.097 595.532L890.278 491.306C890.118 470.735 890.166 450.163 890.423 429.593Z"/><path fill="#34415A" d="M200.551 555.98C213.312 549.369 235.799 539.202 249.227 534.004C249.886 545.82 249.637 565.65 249.166 577.718L198.996 601.906C188.705 606.889 176.861 612.896 166.378 617.156C165.679 605.038 166.006 584.445 166.525 572.349C178.192 567.284 189.197 561.688 200.551 555.98Z"/><path fill="#99886A" d="M200.551 555.98C213.312 549.369 235.799 539.202 249.227 534.004C249.886 545.82 249.637 565.65 249.166 577.718C244.482 575.426 239.237 573.319 234.407 571.03C223.241 565.738 212.096 560.393 200.551 555.98Z"/><path fill="#34415A" d="M76.8758 534.551C104.261 546.628 131.774 560.427 159.002 572.327L158.998 617.224C155.827 615.187 148.889 612.015 145.235 610.258C137.275 606.419 129.286 602.637 121.271 598.913C107.381 592.455 90.3594 583.83 76.54 578.064C77.5549 567.867 76.9517 545.529 76.8758 534.551Z"/><path fill="#020B33" d="M430.328 503.679C439.498 503.808 448.669 503.883 457.841 503.904C458.059 515.206 456.175 549.175 459.598 557.513C461.111 561.2 463.89 564.055 467.589 565.561C476.216 569.074 485.938 566.087 494.014 562.661C497.045 568.604 502.014 580.021 504.379 586.112C502.732 587.086 500.918 588.023 499.226 588.939C494.725 591.222 490.055 593.071 485.122 594.185C473.06 596.911 458.913 595.203 448.41 588.445C439.341 582.609 433.166 573.008 431.028 562.482C429.689 555.891 427.809 507.465 430.328 503.679Z"/><path fill="#5B6B8D" d="M166.27 407.725C190.75 418.453 214.951 431.105 239.288 442.279C242.613 443.805 246.131 445.578 249.275 447.439C244.171 449.587 238.652 452.224 233.571 454.533C222.6 459.807 211.561 464.938 200.457 469.925C190.75 466.714 175.958 458.89 166.433 454.11C166.075 451.576 166.081 449.041 166.087 446.484C166.115 433.606 165.729 420.587 166.27 407.725Z"/><path fill="#5B6B8D" d="M157.476 408.488L158.368 408.382C158.558 408.577 158.748 408.772 158.938 408.966C159.154 421.77 158.942 441.658 159.045 453.796C153.754 457.462 130.891 468.021 124.629 470.014C114.673 465.629 104.721 460.161 94.723 455.546C88.8172 452.722 82.9566 449.804 77.1436 446.794C96.6504 436.82 116.97 427.837 136.624 418.115C143.39 414.768 150.536 411.438 157.476 408.488Z"/><path fill="#020B33" d="M457.814 437.989C458.907 439.663 458.502 468.973 458.535 473.024L494.561 473.008L494.763 498.101C480.518 498.391 466.234 498.06 451.992 498.315C438.91 497.91 425.044 498.439 411.756 498.221C414.748 491.862 425.699 476.552 429.924 470.399C430.079 464.198 429.95 458.103 429.852 451.905C437.673 447.487 449.467 442.085 457.814 437.989Z"/></svg>